<svg xmlns="http://www.w3.org/2000/svg" width="137" height="49" viewBox="0 0 137 49" fill="none"><path d="M19.7551 18.6406C19.7551 19.6258 19.5399 20.5839 19.1125 21.5177C18.6578 22.4546 18.0273 23.2797 17.221 23.9959C16.3965 24.7454 15.4326 25.3196 14.3353 25.7125C13.2107 26.1175 12.0346 26.317 10.8069 26.317H0.973633V0.277832H8.84268C11.2737 0.277832 13.2683 0.972934 14.8203 2.35709C15.5387 2.99477 16.0994 3.74125 16.5056 4.59351C16.8754 5.47296 17.0634 6.37962 17.0634 7.31347C17.0634 8.11133 16.93 8.88501 16.6632 9.63451C16.3722 10.384 15.9721 11.0247 15.4629 11.5566L15.1355 11.9193C16.3389 12.4512 17.3816 13.249 18.2637 14.3128C19.258 15.6517 19.7551 17.0933 19.7551 18.6406ZM4.30798 10.8796H8.75781C9.90361 10.8796 10.8009 10.7467 11.4495 10.4807C12.9439 9.70704 13.6926 8.6523 13.6926 7.31347C13.6926 6.29802 13.2622 5.43367 12.4074 4.71439C11.5496 3.99814 10.3613 3.6385 8.84268 3.6385H4.30798V10.8796ZM10.8069 22.9563C11.9042 22.9563 12.8833 22.7568 13.7411 22.3518C14.5656 21.959 15.2204 21.415 15.7054 20.7199C16.157 20.0278 16.3844 19.3357 16.3844 18.6406C16.3844 17.8911 16.157 17.1839 15.7054 16.513C15.2446 15.8542 14.602 15.3343 13.7775 14.9535C12.5953 14.4458 11.1767 14.192 9.52168 14.192H4.30798V22.9563H10.8069Z" fill="#323956"></path><path d="M39.1318 23.5124C38.1679 24.5036 37.0736 25.2531 35.8459 25.7609C34.6153 26.2928 33.3028 26.5587 31.9054 26.5587C30.5474 26.5587 29.25 26.2928 28.0133 25.7609C26.7584 25.2531 25.6641 24.5036 24.7274 23.5124C23.7635 22.5543 23.0299 21.4512 22.5207 20.2001C22.0115 18.9761 21.7568 17.6675 21.7568 16.2712V0.277832H25.0912V16.2712C25.0912 17.2081 25.264 18.1027 25.6125 18.9549C25.9581 19.8102 26.4522 20.5567 27.0918 21.1913C28.5134 22.5543 30.1169 23.2343 31.9054 23.2343C32.7935 23.2343 33.6665 23.05 34.5243 22.6782C35.3488 22.3337 36.0824 21.8381 36.7311 21.1913C37.3676 20.5567 37.8617 19.8102 38.2103 18.9549C38.5559 18.1027 38.7317 17.2081 38.7317 16.2712V0.277832H42.066V16.2712C42.066 17.6675 41.8114 18.9761 41.3021 20.2001C40.7929 21.4512 40.0684 22.5543 39.1318 23.5124Z" fill="#323956"></path><path d="M63.8064 26.317H59.599L49.6809 12.3545H53.4517C54.4126 12.3545 55.2705 12.291 56.0222 12.1611C56.7406 12.0492 57.3014 11.9163 57.7076 11.7621C58.5381 11.3844 59.1929 10.8373 59.6718 10.1181C60.1568 9.42598 60.3993 8.70367 60.3993 7.95417C60.3993 7.21374 60.1719 6.50957 59.7203 5.83865C59.2595 5.19492 58.5987 4.66 57.7439 4.23085C56.8952 3.83796 55.907 3.6385 54.7855 3.6385H48.723L48.8079 26.317H45.3887V0.277832H54.7855C56.0374 0.277832 57.2135 0.477296 58.3138 0.87018C59.405 1.27515 60.3659 1.84937 61.1995 2.59887C61.9998 3.31815 62.6303 4.1432 63.091 5.07706C63.5093 6.01393 63.7215 6.97196 63.7215 7.95417C63.7215 9.52571 63.2395 10.9401 62.2786 12.1973C61.4784 13.2611 60.3932 14.1285 59.0292 14.7964C57.9864 15.1681 57.0649 15.3525 56.2647 15.3525L63.8064 26.317Z" fill="#323956"></path><path d="M84.6306 26.317H80.4233L70.5051 12.3545H74.2759C75.2368 12.3545 76.0947 12.291 76.8464 12.1611C77.5648 12.0492 78.1256 11.9163 78.5318 11.7621C79.3623 11.3844 80.0171 10.8373 80.496 10.1181C80.981 9.42598 81.2235 8.70367 81.2235 7.95417C81.2235 7.21374 80.9962 6.50957 80.5445 5.83865C80.0838 5.19492 79.423 4.66 78.5681 4.23085C77.7194 3.83796 76.7312 3.6385 75.6097 3.6385H69.5472L69.6321 26.317H66.2129V0.277832H75.6097C76.8616 0.277832 78.0377 0.477296 79.138 0.87018C80.2293 1.27515 81.1902 1.84937 82.0237 2.59887C82.824 3.31815 83.4545 4.1432 83.9152 5.07706C84.3335 6.01393 84.5457 6.97196 84.5457 7.95417C84.5457 9.52571 84.0638 10.9401 83.1029 12.1973C82.3026 13.2611 81.2174 14.1285 79.8534 14.7964C78.8106 15.1681 77.8892 15.3525 77.0889 15.3525L84.6306 26.317Z" fill="#323956"></path><path d="M103.49 21.2762H91.5344L89.2065 26.3172H85.5205L97.7545 0L109.346 26.3172H105.696L103.49 21.2762ZM102.047 17.9518L97.6333 8.07527L93.0622 17.9518H102.047Z" fill="#323956"></path><path d="M132.17 26.3175L130.206 24.2745C127.933 25.7977 125.459 26.5593 122.786 26.5593C120.409 26.5593 118.218 25.9609 116.214 24.7581C114.177 23.5824 112.555 21.9716 111.352 19.9226C110.179 17.8675 109.594 15.6522 109.594 13.2738C109.594 10.9044 110.179 8.69215 111.352 6.63707C112.531 4.60616 114.135 2.99534 116.165 1.80158C118.202 0.625947 120.409 0.0366211 122.786 0.0366211C125.138 0.0366211 127.332 0.625947 129.369 1.80158C131.397 2.99534 133.013 4.60616 134.219 6.63707C135.399 8.69215 135.99 10.9044 135.99 13.2738C135.99 14.9269 135.705 16.5015 135.141 18.0005C134.559 19.5176 133.747 20.8746 132.704 22.0744L136.753 26.3175H132.17ZM127.842 21.7963L121.149 14.5915L123.586 12.355L130.412 19.5962C131.907 17.7829 132.655 15.6764 132.655 13.2738C132.655 11.5179 132.225 9.86476 131.37 8.3174C130.488 6.79422 129.288 5.58233 127.769 4.67869C126.241 3.80226 124.58 3.36102 122.786 3.36102C121.021 3.36102 119.379 3.80226 117.851 4.67869C116.329 5.58233 115.126 6.79422 114.238 8.3174C113.355 9.84058 112.916 11.4937 112.916 13.2738C112.916 15.0629 113.355 16.7191 114.238 18.2422C115.126 19.7594 116.329 20.9562 117.851 21.8326C119.321 22.7453 120.967 23.1986 122.786 23.1986C124.659 23.1986 126.344 22.7332 127.842 21.7963Z" fill="#323956"></path><path d="M38.5693 32.5879H79.2473V34.9482H38.5693V32.5879Z" fill="#F25025"></path><path d="M85.1045 36.3254V31.2119H87.1051C87.5234 31.2119 87.8841 31.2905 88.1842 31.4416C88.4813 31.5957 88.7177 31.8133 88.8875 32.0944C89.0572 32.3694 89.1421 32.6928 89.1421 33.0615C89.1421 33.4332 89.0572 33.7596 88.8875 34.0407C88.7177 34.3157 88.4813 34.5303 88.1842 34.6814C87.8841 34.8264 87.5234 34.899 87.1051 34.899H86.2685V36.3254H85.1045ZM86.2564 33.8956H87.0081C87.3143 33.8956 87.5477 33.8291 87.7113 33.6901C87.872 33.545 87.9538 33.3395 87.9538 33.0736C87.9538 32.8016 87.872 32.59 87.7113 32.445C87.5477 32.2999 87.3143 32.2274 87.0081 32.2274H86.2564V33.8956Z" fill="#F25025"></path><path d="M91.1943 36.3254L93.2313 31.2119H94.3832L96.408 36.3254H95.1713L94.8197 35.443H92.7948L92.4432 36.3254H91.1943ZM93.0858 34.5242H94.5287L93.8012 32.6626L93.0858 34.5242Z" fill="#F25025"></path><path d="M98.876 36.3254V31.2119H101.058C101.453 31.2119 101.792 31.2844 102.077 31.4295C102.368 31.5685 102.589 31.768 102.744 32.0339C102.904 32.2939 102.986 32.6082 102.986 32.9769C102.986 33.3486 102.895 33.672 102.72 33.944C102.55 34.2099 102.31 34.4124 102.004 34.5484L103.071 36.3254H101.725L100.804 34.7297H100.04V36.3254H98.876ZM100.028 33.7505H100.913C101.195 33.7505 101.413 33.6871 101.568 33.5571C101.719 33.4211 101.798 33.2277 101.798 32.9769C101.798 32.7351 101.719 32.5477 101.568 32.4087C101.413 32.2727 101.195 32.2032 100.913 32.2032H100.028V33.7505Z" fill="#F25025"></path><path d="M107.033 36.3254V32.2999H105.408V31.2119H109.822V32.2999H108.197V36.3254H107.033Z" fill="#F25025"></path><path d="M112.441 36.3254V31.2119H113.424L115.691 34.3308V31.2119H116.843V36.3254H115.861L113.593 33.1945V36.3254H112.441Z" fill="#F25025"></path><path d="M119.857 36.3254V31.2119H123.228V32.1911H121.009V33.2549H123.022V34.222H121.009V35.3342H123.301V36.3254H119.857Z" fill="#F25025"></path><path d="M126.073 36.3254V31.2119H128.256C128.65 31.2119 128.989 31.2844 129.274 31.4295C129.565 31.5685 129.786 31.768 129.941 32.0339C130.102 32.2939 130.184 32.6082 130.184 32.9769C130.184 33.3486 130.093 33.672 129.917 33.944C129.747 34.2099 129.508 34.4124 129.201 34.5484L130.268 36.3254H128.923L128.001 34.7297H127.237V36.3254H126.073ZM127.225 33.7505H128.11C128.392 33.7505 128.61 33.6871 128.765 33.5571C128.917 33.4211 128.995 33.2277 128.995 32.9769C128.995 32.7351 128.917 32.5477 128.765 32.4087C128.61 32.2727 128.392 32.2032 128.11 32.2032H127.225V33.7505Z" fill="#F25025"></path><path d="M134.789 36.4217C134.359 36.4217 133.989 36.3522 133.674 36.2162C133.365 36.0711 133.128 35.8717 132.958 35.6118C132.795 35.3549 132.716 35.0496 132.716 34.693H133.856C133.856 34.9439 133.934 35.1373 134.098 35.2733C134.268 35.4032 134.498 35.4667 134.789 35.4667C135.032 35.4667 135.22 35.4244 135.359 35.3337C135.505 35.237 135.577 35.104 135.577 34.9348C135.577 34.7504 135.486 34.6054 135.311 34.4996C135.141 34.3878 134.877 34.2911 134.522 34.2095C133.916 34.0825 133.468 33.8891 133.177 33.6292C132.892 33.3723 132.752 33.0369 132.752 32.6258C132.752 32.1604 132.922 31.7917 133.261 31.5258C133.607 31.2538 134.077 31.1147 134.668 31.1147C135.071 31.1147 135.423 31.1843 135.723 31.3203C136.02 31.4593 136.25 31.6527 136.414 31.9005C136.575 32.1514 136.656 32.4506 136.656 32.7951H135.541C135.541 32.5714 135.462 32.3931 135.311 32.2632C135.156 32.1272 134.947 32.0577 134.68 32.0577C134.438 32.0577 134.244 32.106 134.098 32.2027C133.959 32.2994 133.892 32.4324 133.892 32.6017C133.892 32.7558 133.968 32.8888 134.122 33.0006C134.274 33.1064 134.55 33.2031 134.947 33.2907C135.583 33.4448 136.044 33.6504 136.329 33.9072C136.611 34.1581 136.753 34.4845 136.753 34.8864C136.753 35.37 136.578 35.7508 136.232 36.0228C135.883 36.2887 135.401 36.4217 134.789 36.4217Z" fill="#F25025"></path><path d="M3.67899 42.3814V47.934H2.73186V42.3814H3.67899ZM5.41728 42.3814V43.1442H1.00879V42.3814H5.41728Z" fill="#323956"></path><path d="M14.3522 45.0052V45.3103C14.3522 45.7298 14.2976 46.106 14.1886 46.4391C14.0796 46.7721 13.9236 47.0556 13.7208 47.2895C13.5204 47.5234 13.2795 47.7026 12.998 47.8272C12.7166 47.9492 12.4047 48.0103 12.0623 48.0103C11.7225 48.0103 11.4119 47.9492 11.1304 47.8272C10.8515 47.7026 10.6093 47.5234 10.4039 47.2895C10.1985 47.0556 10.0388 46.7721 9.92466 46.4391C9.81308 46.106 9.7573 45.7298 9.7573 45.3103V45.0052C9.7573 44.5857 9.81308 44.2107 9.92466 43.8802C10.0362 43.5471 10.1935 43.2637 10.3963 43.0298C10.6017 42.7933 10.8439 42.6141 11.1228 42.492C11.4043 42.3675 11.7149 42.3052 12.0547 42.3052C12.3971 42.3052 12.709 42.3675 12.9904 42.492C13.2719 42.6141 13.5141 42.7933 13.7169 43.0298C13.9198 43.2637 14.0758 43.5471 14.1848 43.8802C14.2964 44.2107 14.3522 44.5857 14.3522 45.0052ZM13.3974 45.3103V44.9975C13.3974 44.6874 13.367 44.4141 13.3061 44.1776C13.2478 43.9387 13.1603 43.7391 13.0437 43.5789C12.9296 43.4162 12.7888 43.2942 12.6215 43.2128C12.4541 43.1289 12.2652 43.087 12.0547 43.087C11.8443 43.087 11.6566 43.1289 11.4918 43.2128C11.327 43.2942 11.1862 43.4162 11.0696 43.5789C10.9555 43.7391 10.868 43.9387 10.8071 44.1776C10.7463 44.4141 10.7158 44.6874 10.7158 44.9975V45.3103C10.7158 45.6204 10.7463 45.895 10.8071 46.134C10.868 46.373 10.9567 46.5751 11.0734 46.7403C11.1926 46.9031 11.3346 47.0264 11.4994 47.1103C11.6642 47.1916 11.8519 47.2323 12.0623 47.2323C12.2753 47.2323 12.4643 47.1916 12.6291 47.1103C12.7939 47.0264 12.9334 46.9031 13.0475 46.7403C13.1616 46.5751 13.2478 46.373 13.3061 46.134C13.367 45.895 13.3974 45.6204 13.3974 45.3103Z" fill="#323956"></path><path d="M23.4544 45.0967V47.217C23.3758 47.3213 23.2528 47.4357 23.0855 47.5603C22.9206 47.6823 22.7013 47.7878 22.4274 47.8768C22.1536 47.9658 21.8125 48.0103 21.4042 48.0103C21.0568 48.0103 20.7386 47.9518 20.4495 47.8348C20.1604 47.7153 19.9106 47.5412 19.7002 47.3124C19.4922 47.0836 19.3312 46.8052 19.2171 46.4772C19.103 46.1467 19.0459 45.7704 19.0459 45.3484V44.9632C19.0459 44.5437 19.0979 44.17 19.2019 43.842C19.3084 43.5115 19.4605 43.2319 19.6583 43.0031C19.8561 42.7742 20.0945 42.6014 20.3734 42.4844C20.6549 42.3649 20.9731 42.3052 21.3282 42.3052C21.7821 42.3052 22.1574 42.3814 22.454 42.534C22.7533 42.684 22.984 42.8925 23.1463 43.1594C23.3086 43.4264 23.4113 43.7314 23.4544 44.0747H22.5187C22.4883 43.8814 22.4287 43.7086 22.3399 43.556C22.2537 43.4035 22.1295 43.284 21.9672 43.1975C21.8074 43.1086 21.5995 43.0641 21.3434 43.0641C21.1228 43.0641 20.9288 43.106 20.7614 43.1899C20.594 43.2738 20.4546 43.3971 20.343 43.5598C20.234 43.7225 20.1515 43.9209 20.0958 44.1548C20.04 44.3887 20.0121 44.6556 20.0121 44.9556V45.3484C20.0121 45.6535 20.0438 45.9242 20.1072 46.1607C20.1731 46.3971 20.2669 46.5967 20.3886 46.7594C20.5129 46.9221 20.6638 47.0454 20.8413 47.1293C21.0188 47.2107 21.2191 47.2514 21.4423 47.2514C21.6603 47.2514 21.8391 47.2336 21.9786 47.198C22.1181 47.1598 22.2284 47.1153 22.3095 47.0645C22.3932 47.0111 22.4578 46.9603 22.5035 46.912V45.8098H21.351V45.0967H23.4544Z" fill="#323956"></path><path d="M32.0318 47.1751V47.934H29.0915V47.1751H32.0318ZM29.3616 42.3814V47.934H28.4068V42.3814H29.3616ZM31.6476 44.7001V45.4475H29.0915V44.7001H31.6476ZM32.0127 42.3814V43.1442H29.0915V42.3814H32.0127Z" fill="#323956"></path><path d="M39.061 42.3814V47.934H38.1139V42.3814H39.061ZM40.7993 42.3814V43.1442H36.3908V42.3814H40.7993Z" fill="#323956"></path><path d="M49.0837 44.7001V45.459H46.1435V44.7001H49.0837ZM46.3793 42.3814V47.934H45.4246V42.3814H46.3793ZM49.8179 42.3814V47.934H48.8669V42.3814H49.8179Z" fill="#323956"></path><path d="M58.4751 47.1751V47.934H55.5348V47.1751H58.4751ZM55.8049 42.3814V47.934H54.8502V42.3814H55.8049ZM58.0909 44.7001V45.4475H55.5348V44.7001H58.0909ZM58.4561 42.3814V43.1442H55.5348V42.3814H58.4561Z" fill="#323956"></path><path d="M63.1498 42.3814H65.1087C65.5297 42.3814 65.8885 42.445 66.1852 42.5721C66.4819 42.6992 66.7088 42.8874 66.866 43.1365C67.0258 43.3831 67.1057 43.6882 67.1057 44.0518C67.1057 44.3289 67.055 44.573 66.9535 44.784C66.8521 44.995 66.7088 45.173 66.5237 45.3179C66.3386 45.4603 66.118 45.5709 65.8619 45.6497L65.5728 45.7908H63.8117L63.8041 45.0319H65.1239C65.3522 45.0319 65.5424 44.9912 65.6945 44.9098C65.8466 44.8285 65.9608 44.7179 66.0368 44.5781C66.1154 44.4357 66.1547 44.2755 66.1547 44.0975C66.1547 43.9043 66.1167 43.7365 66.0406 43.5942C65.9671 43.4492 65.853 43.3387 65.6983 43.2624C65.5436 43.1836 65.3471 43.1442 65.1087 43.1442H64.1046V47.934H63.1498V42.3814ZM66.3107 47.934L65.0098 45.4399L66.0102 45.4361L67.3301 47.8844V47.934H66.3107Z" fill="#323956"></path><path d="M79.1748 46.687L80.2779 42.3814H80.856L80.7914 43.4912L79.6122 47.934H79.0113L79.1748 46.687ZM78.3494 42.3814L79.2433 46.6526L79.3232 47.934H78.6841L77.4023 42.3814H78.3494ZM82.1075 46.6412L82.9899 42.3814H83.9408L82.659 47.934H82.02L82.1075 46.6412ZM81.0805 42.3814L82.1721 46.6984L82.3319 47.934H81.7309L80.5708 43.4912L80.5099 42.3814H81.0805Z" fill="#323956"></path><path d="M92.1682 47.1751V47.934H89.228V47.1751H92.1682ZM89.498 42.3814V47.934H88.5433V42.3814H89.498ZM91.7841 44.7001V45.4475H89.228V44.7001H91.7841ZM92.1492 42.3814V43.1442H89.228V42.3814H92.1492Z" fill="#323956"></path><path d="M106.93 45.0967V47.217C106.852 47.3213 106.729 47.4357 106.561 47.5603C106.397 47.6823 106.177 47.7878 105.903 47.8768C105.63 47.9658 105.288 48.0103 104.88 48.0103C104.533 48.0103 104.215 47.9518 103.925 47.8348C103.636 47.7153 103.387 47.5412 103.176 47.3124C102.968 47.0836 102.807 46.8052 102.693 46.4772C102.579 46.1467 102.522 45.7704 102.522 45.3484V44.9632C102.522 44.5437 102.574 44.17 102.678 43.842C102.784 43.5115 102.937 43.2319 103.134 43.0031C103.332 42.7742 103.57 42.6014 103.849 42.4844C104.131 42.3649 104.449 42.3052 104.804 42.3052C105.258 42.3052 105.633 42.3814 105.93 42.534C106.229 42.684 106.46 42.8925 106.622 43.1594C106.785 43.4264 106.887 43.7314 106.93 44.0747H105.995C105.964 43.8814 105.905 43.7086 105.816 43.556C105.73 43.4035 105.605 43.284 105.443 43.1975C105.283 43.1086 105.075 43.0641 104.819 43.0641C104.599 43.0641 104.405 43.106 104.237 43.1899C104.07 43.2738 103.931 43.3971 103.819 43.5598C103.71 43.7225 103.628 43.9209 103.572 44.1548C103.516 44.3887 103.488 44.6556 103.488 44.9556V45.3484C103.488 45.6535 103.52 45.9242 103.583 46.1607C103.649 46.3971 103.743 46.5967 103.865 46.7594C103.989 46.9221 104.14 47.0454 104.317 47.1293C104.495 47.2107 104.695 47.2514 104.918 47.2514C105.136 47.2514 105.315 47.2336 105.455 47.198C105.594 47.1598 105.704 47.1153 105.785 47.0645C105.869 47.0111 105.934 46.9603 105.979 46.912V45.8098H104.827V45.0967H106.93Z" fill="#323956"></path><path d="M111.883 42.3814H113.842C114.263 42.3814 114.621 42.445 114.918 42.5721C115.215 42.6992 115.442 42.8874 115.599 43.1365C115.759 43.3831 115.839 43.6882 115.839 44.0518C115.839 44.3289 115.788 44.573 115.687 44.784C115.585 44.995 115.442 45.173 115.257 45.3179C115.072 45.4603 114.851 45.5709 114.595 45.6497L114.306 45.7908H112.545L112.537 45.0319H113.857C114.085 45.0319 114.275 44.9912 114.427 44.9098C114.58 44.8285 114.694 44.7179 114.77 44.5781C114.848 44.4357 114.888 44.2755 114.888 44.0975C114.888 43.9043 114.85 43.7365 114.774 43.5942C114.7 43.4492 114.586 43.3387 114.431 43.2624C114.277 43.1836 114.08 43.1442 113.842 43.1442H112.838V47.934H111.883V42.3814ZM115.044 47.934L113.743 45.4399L114.743 45.4361L116.063 47.8844V47.934H115.044Z" fill="#323956"></path><path d="M125.101 45.0052V45.3103C125.101 45.7298 125.046 46.106 124.937 46.4391C124.828 46.7721 124.672 47.0556 124.469 47.2895C124.269 47.5234 124.028 47.7026 123.747 47.8272C123.465 47.9492 123.153 48.0103 122.811 48.0103C122.471 48.0103 122.16 47.9492 121.879 47.8272C121.6 47.7026 121.358 47.5234 121.152 47.2895C120.947 47.0556 120.787 46.7721 120.673 46.4391C120.562 46.106 120.506 45.7298 120.506 45.3103V45.0052C120.506 44.5857 120.562 44.2107 120.673 43.8802C120.785 43.5471 120.942 43.2637 121.145 43.0298C121.35 42.7933 121.592 42.6141 121.871 42.492C122.153 42.3675 122.463 42.3052 122.803 42.3052C123.146 42.3052 123.457 42.3675 123.739 42.492C124.02 42.6141 124.263 42.7933 124.465 43.0298C124.668 43.2637 124.824 43.5471 124.933 43.8802C125.045 44.2107 125.101 44.5857 125.101 45.0052ZM124.146 45.3103V44.9975C124.146 44.6874 124.116 44.4141 124.055 44.1776C123.996 43.9387 123.909 43.7391 123.792 43.5789C123.678 43.4162 123.537 43.2942 123.37 43.2128C123.203 43.1289 123.014 43.087 122.803 43.087C122.593 43.087 122.405 43.1289 122.24 43.2128C122.075 43.2942 121.935 43.4162 121.818 43.5789C121.704 43.7391 121.616 43.9387 121.556 44.1776C121.495 44.4141 121.464 44.6874 121.464 44.9975V45.3103C121.464 45.6204 121.495 45.895 121.556 46.134C121.616 46.373 121.705 46.5751 121.822 46.7403C121.941 46.9031 122.083 47.0264 122.248 47.1103C122.413 47.1916 122.6 47.2323 122.811 47.2323C123.024 47.2323 123.213 47.1916 123.378 47.1103C123.542 47.0264 123.682 46.9031 123.796 46.7403C123.91 46.5751 123.996 46.373 124.055 46.134C124.116 45.895 124.146 45.6204 124.146 45.3103Z" fill="#323956"></path><path d="M131.339 46.687L132.442 42.3814H133.02L132.955 43.4912L131.776 47.934H131.175L131.339 46.687ZM130.513 42.3814L131.407 46.6526L131.487 47.934H130.848L129.566 42.3814H130.513ZM134.271 46.6412L135.154 42.3814H136.105L134.823 47.934H134.184L134.271 46.6412ZM133.244 42.3814L134.336 46.6984L134.496 47.934H133.895L132.735 43.4912L132.674 42.3814H133.244Z" fill="#323956"></path></svg>