<svg xmlns="http://www.w3.org/2000/svg" width="137" height="49" viewBox="0 0 137 49" fill="none"><path d="M19.7551 18.6407C19.7551 19.626 19.5399 20.584 19.1125 21.5178C18.6578 22.4547 18.0273 23.2798 17.221 23.996C16.3965 24.7455 15.4326 25.3198 14.3353 25.7126C13.2107 26.1176 12.0346 26.3171 10.8069 26.3171H0.973633V0.277954H8.84268C11.2737 0.277954 13.2683 0.973056 14.8203 2.35722C15.5387 2.9949 16.0994 3.74137 16.5056 4.59363C16.8754 5.47308 17.0634 6.37974 17.0634 7.31359C17.0634 8.11145 16.93 8.88513 16.6632 9.63463C16.3722 10.3841 15.9721 11.0248 15.4629 11.5567L15.1355 11.9194C16.3389 12.4513 17.3816 13.2492 18.2637 14.313C19.258 15.6518 19.7551 17.0934 19.7551 18.6407ZM4.30798 10.8798H8.75781C9.90361 10.8798 10.8009 10.7468 11.4495 10.4808C12.9439 9.70716 13.6926 8.65242 13.6926 7.31359C13.6926 6.29814 13.2622 5.4338 12.4074 4.71452C11.5496 3.99826 10.3613 3.63862 8.84268 3.63862H4.30798V10.8798ZM10.8069 22.9564C11.9042 22.9564 12.8833 22.7569 13.7411 22.352C14.5656 21.9591 15.2204 21.4151 15.7054 20.72C16.157 20.0279 16.3844 19.3358 16.3844 18.6407C16.3844 17.8912 16.157 17.184 15.7054 16.5131C15.2446 15.8543 14.602 15.3345 13.7775 14.9537C12.5953 14.4459 11.1767 14.1921 9.52168 14.1921H4.30798V22.9564H10.8069Z" fill="white"></path><path d="M39.1318 23.5125C38.1679 24.5038 37.0736 25.2533 35.8459 25.761C34.6153 26.2929 33.3028 26.5588 31.9054 26.5588C30.5474 26.5588 29.25 26.2929 28.0133 25.761C26.7584 25.2533 25.6641 24.5038 24.7274 23.5125C23.7635 22.5545 23.0299 21.4514 22.5207 20.2002C22.0115 18.9762 21.7568 17.6676 21.7568 16.2713V0.277954H25.0912V16.2713C25.0912 17.2082 25.264 18.1028 25.6125 18.955C25.9581 19.8103 26.4522 20.5568 27.0918 21.1914C28.5134 22.5545 30.1169 23.2344 31.9054 23.2344C32.7935 23.2344 33.6665 23.0501 34.5243 22.6784C35.3488 22.3338 36.0824 21.8382 36.7311 21.1914C37.3676 20.5568 37.8617 19.8103 38.2103 18.955C38.5559 18.1028 38.7317 17.2082 38.7317 16.2713V0.277954H42.066V16.2713C42.066 17.6676 41.8114 18.9762 41.3021 20.2002C40.7929 21.4514 40.0684 22.5545 39.1318 23.5125Z" fill="white"></path><path d="M63.8064 26.3171H59.599L49.6809 12.3546H53.4517C54.4126 12.3546 55.2705 12.2911 56.0222 12.1612C56.7406 12.0494 57.3014 11.9164 57.7076 11.7622C58.5381 11.3845 59.1929 10.8375 59.6718 10.1182C60.1568 9.4261 60.3993 8.7038 60.3993 7.9543C60.3993 7.21386 60.1719 6.50969 59.7203 5.83877C59.2595 5.19504 58.5987 4.66012 57.7439 4.23097C56.8952 3.83808 55.907 3.63862 54.7855 3.63862H48.723L48.8079 26.3171H45.3887V0.277954H54.7855C56.0374 0.277954 57.2135 0.477418 58.3138 0.870302C59.405 1.27527 60.3659 1.84949 61.1995 2.59899C61.9998 3.31827 62.6303 4.14332 63.091 5.07718C63.5093 6.01405 63.7215 6.97209 63.7215 7.9543C63.7215 9.52583 63.2395 10.9402 62.2786 12.1974C61.4784 13.2612 60.3932 14.1286 59.0292 14.7965C57.9864 15.1682 57.0649 15.3526 56.2647 15.3526L63.8064 26.3171Z" fill="white"></path><path d="M84.6306 26.3171H80.4233L70.5051 12.3546H74.2759C75.2368 12.3546 76.0947 12.2911 76.8464 12.1612C77.5648 12.0494 78.1256 11.9164 78.5318 11.7622C79.3623 11.3845 80.0171 10.8375 80.496 10.1182C80.981 9.4261 81.2235 8.7038 81.2235 7.9543C81.2235 7.21386 80.9962 6.50969 80.5445 5.83877C80.0838 5.19504 79.423 4.66012 78.5681 4.23097C77.7194 3.83808 76.7312 3.63862 75.6097 3.63862H69.5472L69.6321 26.3171H66.2129V0.277954H75.6097C76.8616 0.277954 78.0377 0.477418 79.138 0.870302C80.2293 1.27527 81.1902 1.84949 82.0237 2.59899C82.824 3.31827 83.4545 4.14332 83.9152 5.07718C84.3335 6.01405 84.5457 6.97209 84.5457 7.9543C84.5457 9.52583 84.0638 10.9402 83.1029 12.1974C82.3026 13.2612 81.2174 14.1286 79.8534 14.7965C78.8106 15.1682 77.8892 15.3526 77.0889 15.3526L84.6306 26.3171Z" fill="white"></path><path d="M103.49 21.2762H91.5344L89.2065 26.3172H85.5205L97.7545 0L109.346 26.3172H105.696L103.49 21.2762ZM102.047 17.9518L97.6333 8.07527L93.0622 17.9518H102.047Z" fill="white"></path><path d="M132.17 26.3173L130.206 24.2743C127.933 25.7975 125.459 26.559 122.786 26.559C120.409 26.559 118.218 25.9607 116.214 24.7578C114.177 23.5822 112.555 21.9714 111.352 19.9223C110.179 17.8673 109.594 15.652 109.594 13.2735C109.594 10.9041 110.179 8.69191 111.352 6.63682C112.531 4.60592 114.135 2.99509 116.165 1.80133C118.202 0.625703 120.409 0.036377 122.786 0.036377C125.138 0.036377 127.332 0.625703 129.369 1.80133C131.397 2.99509 133.013 4.60592 134.219 6.63682C135.399 8.69191 135.99 10.9041 135.99 13.2735C135.99 14.9267 135.705 16.5012 135.141 18.0002C134.559 19.5174 133.747 20.8743 132.704 22.0741L136.753 26.3173H132.17ZM127.842 21.7961L121.149 14.5912L123.586 12.3548L130.412 19.5959C131.907 17.7826 132.655 15.6762 132.655 13.2735C132.655 11.5176 132.225 9.86451 131.37 8.31716C130.488 6.79398 129.288 5.58208 127.769 4.67845C126.241 3.80202 124.58 3.36078 122.786 3.36078C121.021 3.36078 119.379 3.80202 117.851 4.67845C116.329 5.58208 115.126 6.79398 114.238 8.31716C113.355 9.84034 112.916 11.4935 112.916 13.2735C112.916 15.0627 113.355 16.7188 114.238 18.242C115.126 19.7591 116.329 20.9559 117.851 21.8324C119.321 22.7451 120.967 23.1984 122.786 23.1984C124.659 23.1984 126.344 22.733 127.842 21.7961Z" fill="white"></path><path d="M38.5693 32.5883H79.2473V34.9486H38.5693V32.5883Z" fill="#F25025"></path><path d="M85.1045 36.3253V31.2118H87.1051C87.5234 31.2118 87.8841 31.2904 88.1842 31.4415C88.4813 31.5956 88.7177 31.8132 88.8875 32.0943C89.0572 32.3693 89.1421 32.6927 89.1421 33.0614C89.1421 33.4331 89.0572 33.7595 88.8875 34.0406C88.7177 34.3156 88.4813 34.5301 88.1842 34.6813C87.8841 34.8263 87.5234 34.8989 87.1051 34.8989H86.2685V36.3253H85.1045ZM86.2564 33.8955H87.0081C87.3143 33.8955 87.5477 33.829 87.7113 33.69C87.872 33.5449 87.9538 33.3394 87.9538 33.0735C87.9538 32.8015 87.872 32.5899 87.7113 32.4448C87.5477 32.2998 87.3143 32.2272 87.0081 32.2272H86.2564V33.8955Z" fill="#F25025"></path><path d="M91.1943 36.3253L93.2313 31.2118H94.3832L96.408 36.3253H95.1713L94.8197 35.4428H92.7948L92.4432 36.3253H91.1943ZM93.0858 34.5241H94.5287L93.8012 32.6624L93.0858 34.5241Z" fill="#F25025"></path><path d="M98.876 36.3253V31.2118H101.058C101.453 31.2118 101.792 31.2843 102.077 31.4294C102.368 31.5684 102.589 31.7679 102.744 32.0338C102.904 32.2937 102.986 32.608 102.986 32.9767C102.986 33.3485 102.895 33.6718 102.72 33.9438C102.55 34.2098 102.31 34.4123 102.004 34.5483L103.071 36.3253H101.725L100.804 34.7296H100.04V36.3253H98.876ZM100.028 33.7504H100.913C101.195 33.7504 101.413 33.687 101.568 33.557C101.719 33.421 101.798 33.2276 101.798 32.9767C101.798 32.735 101.719 32.5476 101.568 32.4086C101.413 32.2726 101.195 32.2031 100.913 32.2031H100.028V33.7504Z" fill="#F25025"></path><path d="M107.033 36.3253V32.2998H105.408V31.2118H109.822V32.2998H108.197V36.3253H107.033Z" fill="#F25025"></path><path d="M112.441 36.3253V31.2118H113.424L115.691 34.3307V31.2118H116.843V36.3253H115.861L113.593 33.1943V36.3253H112.441Z" fill="#F25025"></path><path d="M119.857 36.3253V31.2118H123.228V32.191H121.009V33.2548H123.022V34.2219H121.009V35.334H123.301V36.3253H119.857Z" fill="#F25025"></path><path d="M126.073 36.3253V31.2118H128.256C128.65 31.2118 128.989 31.2843 129.274 31.4294C129.565 31.5684 129.786 31.7679 129.941 32.0338C130.102 32.2937 130.184 32.608 130.184 32.9767C130.184 33.3485 130.093 33.6718 129.917 33.9438C129.747 34.2098 129.508 34.4123 129.201 34.5483L130.268 36.3253H128.923L128.001 34.7296H127.237V36.3253H126.073ZM127.225 33.7504H128.11C128.392 33.7504 128.61 33.687 128.765 33.557C128.917 33.421 128.995 33.2276 128.995 32.9767C128.995 32.735 128.917 32.5476 128.765 32.4086C128.61 32.2726 128.392 32.2031 128.11 32.2031H127.225V33.7504Z" fill="#F25025"></path><path d="M134.789 36.4219C134.359 36.4219 133.989 36.3524 133.674 36.2164C133.365 36.0714 133.128 35.8719 132.958 35.612C132.795 35.3551 132.716 35.0499 132.716 34.6933H133.856C133.856 34.9441 133.934 35.1375 134.098 35.2735C134.268 35.4035 134.498 35.4669 134.789 35.4669C135.032 35.4669 135.22 35.4246 135.359 35.334C135.505 35.2372 135.577 35.1043 135.577 34.935C135.577 34.7507 135.486 34.6056 135.311 34.4998C135.141 34.388 134.877 34.2913 134.522 34.2097C133.916 34.0828 133.468 33.8894 133.177 33.6294C132.892 33.3726 132.752 33.0371 132.752 32.6261C132.752 32.1607 132.922 31.792 133.261 31.526C133.607 31.254 134.077 31.115 134.668 31.115C135.071 31.115 135.423 31.1845 135.723 31.3205C136.02 31.4595 136.25 31.6529 136.414 31.9008C136.575 32.1516 136.656 32.4508 136.656 32.7953H135.541C135.541 32.5717 135.462 32.3934 135.311 32.2634C135.156 32.1274 134.947 32.0579 134.68 32.0579C134.438 32.0579 134.244 32.1063 134.098 32.203C133.959 32.2997 133.892 32.4327 133.892 32.6019C133.892 32.756 133.968 32.889 134.122 33.0008C134.274 33.1066 134.55 33.2033 134.947 33.291C135.583 33.4451 136.044 33.6506 136.329 33.9075C136.611 34.1583 136.753 34.4847 136.753 34.8867C136.753 35.3702 136.578 35.751 136.232 36.023C135.883 36.289 135.401 36.4219 134.789 36.4219Z" fill="#F25025"></path><path d="M3.67899 42.3813V47.9339H2.73186V42.3813H3.67899ZM5.41728 42.3813V43.144H1.00879V42.3813H5.41728Z" fill="white"></path><path d="M14.3522 45.0051V45.3101C14.3522 45.7296 14.2976 46.1059 14.1886 46.439C14.0796 46.772 13.9236 47.0555 13.7208 47.2894C13.5204 47.5233 13.2795 47.7025 12.998 47.8271C12.7166 47.9491 12.4047 48.0101 12.0623 48.0101C11.7225 48.0101 11.4119 47.9491 11.1304 47.8271C10.8515 47.7025 10.6093 47.5233 10.4039 47.2894C10.1985 47.0555 10.0388 46.772 9.92466 46.439C9.81308 46.1059 9.7573 45.7296 9.7573 45.3101V45.0051C9.7573 44.5856 9.81308 44.2106 9.92466 43.8801C10.0362 43.547 10.1935 43.2635 10.3963 43.0296C10.6017 42.7932 10.8439 42.614 11.1228 42.4919C11.4043 42.3673 11.7149 42.3051 12.0547 42.3051C12.3971 42.3051 12.709 42.3673 12.9904 42.4919C13.2719 42.614 13.5141 42.7932 13.7169 43.0296C13.9198 43.2635 14.0758 43.547 14.1848 43.8801C14.2964 44.2106 14.3522 44.5856 14.3522 45.0051ZM13.3974 45.3101V44.9974C13.3974 44.6873 13.367 44.414 13.3061 44.1775C13.2478 43.9385 13.1603 43.739 13.0437 43.5788C12.9296 43.4161 12.7888 43.294 12.6215 43.2127C12.4541 43.1288 12.2652 43.0868 12.0547 43.0868C11.8443 43.0868 11.6566 43.1288 11.4918 43.2127C11.327 43.294 11.1862 43.4161 11.0696 43.5788C10.9555 43.739 10.868 43.9385 10.8071 44.1775C10.7463 44.414 10.7158 44.6873 10.7158 44.9974V45.3101C10.7158 45.6203 10.7463 45.8949 10.8071 46.1339C10.868 46.3729 10.9567 46.575 11.0734 46.7402C11.1926 46.9029 11.3346 47.0262 11.4994 47.1101C11.6642 47.1915 11.8519 47.2322 12.0623 47.2322C12.2753 47.2322 12.4643 47.1915 12.6291 47.1101C12.7939 47.0262 12.9334 46.9029 13.0475 46.7402C13.1616 46.575 13.2478 46.3729 13.3061 46.1339C13.367 45.8949 13.3974 45.6203 13.3974 45.3101Z" fill="white"></path><path d="M23.4544 45.0966V47.2169C23.3758 47.3212 23.2528 47.4356 23.0855 47.5601C22.9206 47.6822 22.7013 47.7877 22.4274 47.8767C22.1536 47.9656 21.8125 48.0101 21.4042 48.0101C21.0568 48.0101 20.7386 47.9517 20.4495 47.8347C20.1604 47.7152 19.9106 47.5411 19.7002 47.3123C19.4922 47.0834 19.3312 46.8051 19.2171 46.4771C19.103 46.1466 19.0459 45.7703 19.0459 45.3483V44.9631C19.0459 44.5436 19.0979 44.1699 19.2019 43.8419C19.3084 43.5114 19.4605 43.2317 19.6583 43.0029C19.8561 42.7741 20.0945 42.6012 20.3734 42.4843C20.6549 42.3648 20.9731 42.3051 21.3281 42.3051C21.7821 42.3051 22.1574 42.3813 22.454 42.5339C22.7533 42.6839 22.984 42.8923 23.1463 43.1593C23.3086 43.4262 23.4113 43.7313 23.4544 44.0745H22.5187C22.4883 43.8813 22.4287 43.7084 22.3399 43.5559C22.2537 43.4034 22.1295 43.2839 21.9672 43.1974C21.8074 43.1084 21.5995 43.064 21.3434 43.064C21.1228 43.064 20.9288 43.1059 20.7614 43.1898C20.594 43.2737 20.4546 43.397 20.343 43.5597C20.234 43.7224 20.1515 43.9207 20.0958 44.1546C20.04 44.3885 20.0121 44.6555 20.0121 44.9555V45.3483C20.0121 45.6534 20.0438 45.9241 20.1072 46.1606C20.1731 46.397 20.2669 46.5966 20.3886 46.7593C20.5129 46.922 20.6638 47.0453 20.8413 47.1292C21.0188 47.2106 21.2191 47.2512 21.4423 47.2512C21.6603 47.2512 21.8391 47.2334 21.9786 47.1979C22.1181 47.1597 22.2284 47.1152 22.3095 47.0644C22.3932 47.011 22.4578 46.9601 22.5035 46.9118V45.8097H21.351V45.0966H23.4544Z" fill="white"></path><path d="M32.0318 47.175V47.9339H29.0915V47.175H32.0318ZM29.3616 42.3813V47.9339H28.4068V42.3813H29.3616ZM31.6476 44.7V45.4474H29.0915V44.7H31.6476ZM32.0127 42.3813V43.144H29.0915V42.3813H32.0127Z" fill="white"></path><path d="M39.061 42.3813V47.9339H38.1139V42.3813H39.061ZM40.7993 42.3813V43.144H36.3908V42.3813H40.7993Z" fill="white"></path><path d="M49.0837 44.7V45.4589H46.1435V44.7H49.0837ZM46.3793 42.3813V47.9339H45.4246V42.3813H46.3793ZM49.8179 42.3813V47.9339H48.8669V42.3813H49.8179Z" fill="white"></path><path d="M58.4751 47.175V47.9339H55.5348V47.175H58.4751ZM55.8049 42.3813V47.9339H54.8502V42.3813H55.8049ZM58.0909 44.7V45.4474H55.5348V44.7H58.0909ZM58.4561 42.3813V43.144H55.5348V42.3813H58.4561Z" fill="white"></path><path d="M63.1498 42.3813H65.1087C65.5297 42.3813 65.8885 42.4449 66.1852 42.572C66.4819 42.6991 66.7088 42.8873 66.866 43.1364C67.0258 43.383 67.1057 43.6881 67.1057 44.0517C67.1057 44.3288 67.055 44.5729 66.9535 44.7839C66.8521 44.9949 66.7088 45.1729 66.5237 45.3178C66.3386 45.4601 66.118 45.5707 65.8619 45.6495L65.5728 45.7906H63.8117L63.8041 45.0317H65.1239C65.3522 45.0317 65.5424 44.9911 65.6945 44.9097C65.8466 44.8284 65.9608 44.7178 66.0368 44.5779C66.1154 44.4356 66.1547 44.2754 66.1547 44.0974C66.1547 43.9042 66.1167 43.7364 66.0406 43.594C65.9671 43.4491 65.853 43.3385 65.6983 43.2623C65.5436 43.1834 65.3471 43.144 65.1087 43.144H64.1046V47.9339H63.1498V42.3813ZM66.3107 47.9339L65.0098 45.4398L66.0102 45.436L67.3301 47.8843V47.9339H66.3107Z" fill="white"></path><path d="M79.1748 46.6868L80.2779 42.3813H80.856L80.7914 43.4911L79.6122 47.9339H79.0113L79.1748 46.6868ZM78.3494 42.3813L79.2433 46.6525L79.3232 47.9339H78.6841L77.4023 42.3813H78.3494ZM82.1075 46.6411L82.9899 42.3813H83.9408L82.659 47.9339H82.02L82.1075 46.6411ZM81.0805 42.3813L82.1721 46.6983L82.3319 47.9339H81.7309L80.5708 43.4911L80.5099 42.3813H81.0805Z" fill="white"></path><path d="M92.1682 47.175V47.9339H89.228V47.175H92.1682ZM89.498 42.3813V47.9339H88.5433V42.3813H89.498ZM91.7841 44.7V45.4474H89.228V44.7H91.7841ZM92.1492 42.3813V43.144H89.228V42.3813H92.1492Z" fill="white"></path><path d="M106.93 45.0966V47.2169C106.852 47.3212 106.729 47.4356 106.561 47.5601C106.397 47.6822 106.177 47.7877 105.903 47.8767C105.63 47.9656 105.288 48.0101 104.88 48.0101C104.533 48.0101 104.215 47.9517 103.925 47.8347C103.636 47.7152 103.387 47.5411 103.176 47.3123C102.968 47.0834 102.807 46.8051 102.693 46.4771C102.579 46.1466 102.522 45.7703 102.522 45.3483V44.9631C102.522 44.5436 102.574 44.1699 102.678 43.8419C102.784 43.5114 102.937 43.2317 103.134 43.0029C103.332 42.7741 103.57 42.6012 103.849 42.4843C104.131 42.3648 104.449 42.3051 104.804 42.3051C105.258 42.3051 105.633 42.3813 105.93 42.5339C106.229 42.6839 106.46 42.8923 106.622 43.1593C106.785 43.4262 106.887 43.7313 106.93 44.0745H105.995C105.964 43.8813 105.905 43.7084 105.816 43.5559C105.73 43.4034 105.605 43.2839 105.443 43.1974C105.283 43.1084 105.075 43.064 104.819 43.064C104.599 43.064 104.405 43.1059 104.237 43.1898C104.07 43.2737 103.931 43.397 103.819 43.5597C103.71 43.7224 103.628 43.9207 103.572 44.1546C103.516 44.3885 103.488 44.6555 103.488 44.9555V45.3483C103.488 45.6534 103.52 45.9241 103.583 46.1606C103.649 46.397 103.743 46.5966 103.865 46.7593C103.989 46.922 104.14 47.0453 104.317 47.1292C104.495 47.2106 104.695 47.2512 104.918 47.2512C105.136 47.2512 105.315 47.2334 105.455 47.1979C105.594 47.1597 105.704 47.1152 105.785 47.0644C105.869 47.011 105.934 46.9601 105.979 46.9118V45.8097H104.827V45.0966H106.93Z" fill="white"></path><path d="M111.883 42.3813H113.842C114.263 42.3813 114.621 42.4449 114.918 42.572C115.215 42.6991 115.442 42.8873 115.599 43.1364C115.759 43.383 115.839 43.6881 115.839 44.0517C115.839 44.3288 115.788 44.5729 115.687 44.7839C115.585 44.9949 115.442 45.1729 115.257 45.3178C115.072 45.4601 114.851 45.5707 114.595 45.6495L114.306 45.7906H112.545L112.537 45.0317H113.857C114.085 45.0317 114.275 44.9911 114.427 44.9097C114.58 44.8284 114.694 44.7178 114.77 44.5779C114.848 44.4356 114.888 44.2754 114.888 44.0974C114.888 43.9042 114.85 43.7364 114.774 43.594C114.7 43.4491 114.586 43.3385 114.431 43.2623C114.277 43.1834 114.08 43.144 113.842 43.144H112.838V47.9339H111.883V42.3813ZM115.044 47.9339L113.743 45.4398L114.743 45.436L116.063 47.8843V47.9339H115.044Z" fill="white"></path><path d="M125.101 45.0051V45.3101C125.101 45.7296 125.046 46.1059 124.937 46.439C124.828 46.772 124.672 47.0555 124.469 47.2894C124.269 47.5233 124.028 47.7025 123.747 47.8271C123.465 47.9491 123.153 48.0101 122.811 48.0101C122.471 48.0101 122.16 47.9491 121.879 47.8271C121.6 47.7025 121.358 47.5233 121.152 47.2894C120.947 47.0555 120.787 46.772 120.673 46.439C120.562 46.1059 120.506 45.7296 120.506 45.3101V45.0051C120.506 44.5856 120.562 44.2106 120.673 43.8801C120.785 43.547 120.942 43.2635 121.145 43.0296C121.35 42.7932 121.592 42.614 121.871 42.4919C122.153 42.3673 122.463 42.3051 122.803 42.3051C123.146 42.3051 123.457 42.3673 123.739 42.4919C124.02 42.614 124.263 42.7932 124.465 43.0296C124.668 43.2635 124.824 43.547 124.933 43.8801C125.045 44.2106 125.101 44.5856 125.101 45.0051ZM124.146 45.3101V44.9974C124.146 44.6873 124.116 44.414 124.055 44.1775C123.996 43.9385 123.909 43.739 123.792 43.5788C123.678 43.4161 123.537 43.294 123.37 43.2127C123.203 43.1288 123.014 43.0868 122.803 43.0868C122.593 43.0868 122.405 43.1288 122.24 43.2127C122.075 43.294 121.935 43.4161 121.818 43.5788C121.704 43.739 121.616 43.9385 121.556 44.1775C121.495 44.414 121.464 44.6873 121.464 44.9974V45.3101C121.464 45.6203 121.495 45.8949 121.556 46.1339C121.616 46.3729 121.705 46.575 121.822 46.7402C121.941 46.9029 122.083 47.0262 122.248 47.1101C122.413 47.1915 122.6 47.2322 122.811 47.2322C123.024 47.2322 123.213 47.1915 123.378 47.1101C123.542 47.0262 123.682 46.9029 123.796 46.7402C123.91 46.575 123.996 46.3729 124.055 46.1339C124.116 45.8949 124.146 45.6203 124.146 45.3101Z" fill="white"></path><path d="M131.339 46.6868L132.442 42.3813H133.02L132.955 43.4911L131.776 47.9339H131.175L131.339 46.6868ZM130.513 42.3813L131.407 46.6525L131.487 47.9339H130.848L129.566 42.3813H130.513ZM134.271 46.6411L135.154 42.3813H136.105L134.823 47.9339H134.184L134.271 46.6411ZM133.244 42.3813L134.336 46.6983L134.496 47.9339H133.895L132.735 43.4911L132.674 42.3813H133.244Z" fill="white"></path></svg>